<svg data-v-fde0c5aa="" xmlns="http://www.w3.org/2000/svg" viewBox="0 0 300 300" class="font"><!----><defs data-v-fde0c5aa=""><!----></defs><rect data-v-fde0c5aa="" fill="transparent" x="0" y="0" width="300px" height="300px" class="logo-background-square"></rect><defs data-v-fde0c5aa=""><linearGradient data-v-fde0c5aa="" gradientTransform="rotate(25)" id="442241d7-8f20-4763-a0e4-db4666d5de66" x1="0%" y1="0%" x2="100%" y2="0%"><stop data-v-fde0c5aa="" offset="0%" stop-color="#5106FF" stop-opacity="1"></stop><stop data-v-fde0c5aa="" offset="100%" stop-color="#61CBF2" stop-opacity="1"></stop></linearGradient></defs><g data-v-fde0c5aa="" id="8c790607-c933-409c-a0f8-261b6706a94e" fill="url(#442241d7-8f20-4763-a0e4-db4666d5de66)" transform="matrix(4.523026466369629,0,0,4.523026466369629,39.999999999999986,124.73889780638434)"><path d="M0.98 0.70L3.33 0.70Q3.79 0.70 4.12 1.04Q4.45 1.37 4.45 1.83L4.45 1.83L4.45 9.38Q4.45 9.84 4.12 10.17Q3.79 10.50 3.33 10.50L3.33 10.50L0.94 10.50L0 10.50L0 0.70L0.98 0.70ZM2.91 8.95L2.91 2.24L1.54 2.24L1.54 8.95L2.91 8.95ZM6.90 0.70L6.90 0.70L9.37 0.70L9.37 1.68L9.37 2.24L6.90 2.24L6.90 4.07L8.86 4.07L8.86 4.35L8.86 5.33L8.86 5.61L6.90 5.61L6.90 8.96L9.37 8.96L9.37 9.52L9.37 10.50L6.90 10.50L5.36 10.50L5.36 9.48L5.36 4.07L6.90 4.07L5.36 1.04L5.36 0.70L6.90 0.70ZM13.79 0.70L13.79 0.70Q14.20 0.77 14.46 1.08Q14.73 1.39 14.73 1.81L14.73 1.81L14.73 2.84L14.73 3.29L13.19 3.29L13.19 2.84L13.19 2.23L11.82 2.23L11.82 8.97L13.19 8.97L13.19 8.34L13.19 7.90L14.73 7.90L14.73 8.34L14.73 9.39Q14.73 9.81 14.46 10.12Q14.20 10.43 13.79 10.50L13.79 10.50L11.21 10.50Q10.81 10.43 10.54 10.12Q10.28 9.81 10.28 9.39L10.28 9.39L10.28 1.81Q10.28 1.39 10.54 1.08Q10.81 0.77 11.21 0.70L11.21 0.70L13.79 0.70ZM18.45 0.71L20.16 0.71L18.35 4.86L20.13 10.50L19.75 10.50L18.70 10.50L18.49 10.50L17.36 6.90L17.18 7.28L17.18 10.50L16.90 10.50L15.92 10.50L15.64 10.50L15.64 4.07L17.18 4.07L18.45 0.71ZM15.64 1.02L15.64 0.70L17.18 0.70L17.18 4.07L15.64 1.02ZM22.48 0.70L22.48 0.70L24.95 0.70L24.95 1.68L24.95 2.24L22.48 2.24L22.48 4.07L24.44 4.07L24.44 4.35L24.44 5.33L24.44 5.61L22.48 5.61L22.48 8.96L24.95 8.96L24.95 9.52L24.95 10.50L22.48 10.50L20.94 10.50L20.94 9.48L20.94 4.07L22.48 4.07L20.94 1.04L20.94 0.70L22.48 0.70ZM29.20 0.70L29.20 0.70Q29.43 0.70 29.63 0.79Q29.83 0.88 29.98 1.04Q30.13 1.19 30.22 1.40Q30.31 1.61 30.31 1.83L30.31 1.83L30.31 9.39Q30.31 9.86 29.98 10.18Q29.65 10.50 29.20 10.50L29.20 10.50L25.86 10.50L25.86 4.07L27.40 4.07L27.40 8.96L28.77 8.96L28.77 2.25L27.40 2.25L27.40 4.07L25.86 1.02L25.86 0.70L29.20 0.70ZM34.45 0.70L37.04 0.70Q37.44 0.77 37.70 1.08Q37.97 1.40 37.97 1.81L37.97 1.81L37.97 2.86L37.97 3.28L37.97 3.30L37.97 8.36L37.97 9.41Q37.97 9.81 37.70 10.12Q37.44 10.43 37.04 10.50L37.04 10.50L34.45 10.50Q34.06 10.43 33.80 10.12Q33.53 9.81 33.53 9.41L33.53 9.41L33.53 1.81Q33.53 1.40 33.80 1.08Q34.06 0.77 34.45 0.70L34.45 0.70ZM36.43 3.30L36.43 3.28L36.43 2.86L36.43 2.24L35.07 2.24L35.07 8.97L36.43 8.97L36.43 8.36L36.43 3.30ZM41.79 0.67L43.33 0.67L43.33 9.11Q43.33 9.65 42.99 10.02L42.99 10.02Q42.66 10.42 42.17 10.49L42.17 10.49L42.14 10.50L42.11 10.50L40.08 10.50L40.07 10.50L40.04 10.49Q39.55 10.42 39.21 10.02L39.21 10.02Q38.88 9.65 38.88 9.11L38.88 9.11L38.88 0.67L40.42 0.67L40.42 8.97L41.79 8.97L41.79 0.67ZM48.64 0.70L48.64 0.70L48.64 2.24L47.25 2.24L47.25 8.67L47.25 10.50L45.71 10.50L45.71 8.67L45.71 2.24L44.23 2.24L44.23 0.70L45.71 0.70L47.25 0.70L48.64 0.70Z"></path></g><!----><!----></svg>